<?xml version="1.0" encoding="utf-8"?>
<!DOCTYPE svg PUBLIC "-//W3C//DTD SVG 20010904//EN" "http://www.w3.org/TR/2001/REC-SVG-20010904/DTD/svg10.dtd">
<svg height="283.000000pt" preserveAspectRatio="xMidYMid meet" version="1.0"
    viewBox="0 0 233.000000 283.000000" width="233.000000pt" xmlns="http://www.w3.org/2000/svg">
    <g fill="none" stroke="none"
        transform="translate(0.000000,283.000000) scale(0.100000,-0.100000)">
        <path
            d="M0 1415 l0 -1415 1165 0 1165 0 0 1415 0 1415 -1165 0 -1165 0 0 -1415z m2123 1245 l197 -143 -2 -684 -3 -685 -518 -268 c-507 -262 -519 -268 -552 -316 -46 -68 -333 -503 -344 -521 -7 -13 -39 7 -167 102 -88 65 -164 122 -170 126 -6 5 -37 -5 -75 -26 -35 -19 -69 -35 -76 -35 -11 0 -376 291 -387 309 -3 4 -9 312 -12 682 l-7 674 54 27 c472 239 1838 907 1849 904 8 -1 104 -67 213 -146z m-1821 -65 c2 -3 19 -11 37 -18 l33 -14 -31 -6 c-25 -5 -36 -16 -51 -49 -13 -28 -20 -36 -20 -23 0 32 -28 64 -63 74 -26 7 -27 9 -9 10 32 1 72 44 72 78 1 26 2 25 15 -10 7 -21 15 -40 17 -42z m1651 -2099 c21 -50 102 -132 141 -142 32 -8 33 -20 3 -28 -54 -13 -138 -108 -157 -176 -6 -23 -9 -21 -29 27 -26 58 -104 138 -145 149 -35 9 -33 18 10 33 49 18 106 77 130 134 10 26 21 47 24 47 3 0 13 -20 23 -44z"
            fill="none" />
        <path
            d="M1475 2535 c-214 -107 -618 -308 -897 -447 l-508 -252 0 -638 c0 -423 3 -638 10 -638 6 0 104 47 219 104 l209 105 6 -67 c3 -37 9 -127 12 -200 4 -73 10 -135 14 -137 4 -2 103 139 220 314 l213 318 454 226 453 227 0 640 c0 352 -3 640 -7 639 -5 0 -183 -88 -398 -194z m-311 -409 c-28 -67 -48 -96 -85 -130 -27 -24 -49 -48 -49 -54 0 -5 22 -7 51 -4 45 4 53 2 80 -24 17 -16 37 -41 44 -55 14 -25 13 -26 -65 -64 l-80 -39 -36 43 c-25 29 -43 41 -58 39 -19 -3 -21 -10 -24 -74 l-3 -70 -65 -32 c-36 -18 -69 -30 -75 -27 -11 7 -12 365 -1 381 6 10 124 74 137 74 3 0 5 -27 5 -60 0 -33 4 -60 10 -60 14 0 55 66 75 123 17 45 24 51 94 87 42 21 77 37 79 35 2 -2 -13 -42 -34 -89z m256 -19 l0 -42 -95 -48 c-102 -50 -110 -50 -103 10 3 24 15 34 93 75 50 26 93 47 98 48 4 0 7 -19 7 -43z m-690 -317 l0 -200 -70 -35 -70 -35 0 200 0 200 68 34 c37 19 68 35 70 36 1 0 2 -90 2 -200z m990 76 c-37 -88 -76 -145 -113 -165 -46 -24 -34 -41 23 -34 46 5 54 3 81 -23 17 -16 37 -41 45 -56 l14 -28 -78 -39 -79 -40 -37 45 c-27 32 -44 44 -59 42 -20 -3 -22 -10 -25 -74 l-3 -71 -64 -31 c-35 -18 -66 -32 -69 -32 -3 0 -6 88 -6 195 l0 195 70 35 70 35 0 -60 c0 -33 4 -60 9 -60 17 0 48 48 71 110 22 60 24 62 99 100 42 21 77 37 79 35 2 -2 -11 -37 -28 -79z m-1180 -34 c0 -58 -4 -64 -57 -91 l-42 -21 -3 -137 -3 -137 -65 -33 c-36 -17 -68 -32 -72 -32 -5 -1 -8 58 -8 129 0 72 -2 130 -5 130 -3 0 -23 -9 -45 -20 -22 -11 -42 -20 -45 -20 -3 0 -5 27 -5 60 l0 60 168 84 c92 46 170 82 175 79 4 -2 7 -25 7 -51z m620 -312 c0 -71 2 -130 5 -130 3 0 32 13 64 30 32 16 61 26 65 23 8 -9 7 -96 -2 -109 -6 -10 -264 -144 -277 -144 -3 0 -4 89 -3 198 l3 197 60 32 c33 18 66 33 73 33 9 0 12 -33 12 -130z m-257 -188 c37 -87 67 -160 67 -163 0 -3 -32 -21 -71 -40 -65 -31 -73 -32 -82 -17 -10 15 -16 14 -70 -13 -42 -22 -61 -38 -68 -58 -8 -22 -25 -35 -80 -59 -38 -17 -69 -26 -69 -20 0 5 20 76 44 156 24 81 54 180 66 220 l21 72 77 40 c42 21 82 39 88 40 6 0 41 -71 77 -158z m-365 -49 c-3 -58 -3 -58 -50 -83 l-47 -25 -3 -135 -3 -135 -72 -38 -73 -38 0 136 0 135 -50 -25 -50 -25 0 64 0 65 163 80 c89 43 168 80 175 80 10 1 12 -14 10 -56z"
            fill="#AD7AFE" />
        <path
            d="M744 1332 c-11 -7 -30 -142 -20 -142 3 0 16 5 30 12 24 10 25 14 20 67 -7 61 -13 74 -30 63z"
            fill="#AD7AFE" />
    </g>
</svg>